<mxfile host="app.diagrams.net" agent="Mozilla/5.0 (Windows NT 10.0; Win64; x64) AppleWebKit/537.36 (KHTML, like Gecko) Chrome/133.0.0.0 Safari/537.36 OPR/118.0.0.0 (Edition std-1)" version="27.0.8">
  <diagram name="Page-1" id="gC0R-KqlYc_FOQzrwsdM">
    <mxGraphModel dx="831" dy="496" grid="1" gridSize="10" guides="1" tooltips="1" connect="1" arrows="1" fold="1" page="1" pageScale="1" pageWidth="1100" pageHeight="850" math="0" shadow="0">
      <root>
        <mxCell id="0" />
        <mxCell id="1" parent="0" />
        <mxCell id="qzuELBwGNZEWgTf19Vps-1" value="ShortURL" style="swimlane;fontStyle=0;childLayout=stackLayout;horizontal=1;startSize=26;horizontalStack=0;resizeParent=1;resizeParentMax=0;resizeLast=0;collapsible=1;marginBottom=0;align=center;fontSize=14;" vertex="1" parent="1">
          <mxGeometry x="400" y="150" width="250" height="266" as="geometry" />
        </mxCell>
        <mxCell id="qzuELBwGNZEWgTf19Vps-2" value="id (PK)" style="text;strokeColor=none;fillColor=none;spacingLeft=4;spacingRight=4;overflow=hidden;rotatable=0;points=[[0,0.5],[1,0.5]];portConstraint=eastwest;fontSize=12;whiteSpace=wrap;html=1;" vertex="1" parent="qzuELBwGNZEWgTf19Vps-1">
          <mxGeometry y="26" width="250" height="30" as="geometry" />
        </mxCell>
        <mxCell id="qzuELBwGNZEWgTf19Vps-18" value="user (FK, optional)" style="text;strokeColor=none;fillColor=none;spacingLeft=4;spacingRight=4;overflow=hidden;rotatable=0;points=[[0,0.5],[1,0.5]];portConstraint=eastwest;fontSize=12;whiteSpace=wrap;html=1;" vertex="1" parent="qzuELBwGNZEWgTf19Vps-1">
          <mxGeometry y="56" width="250" height="30" as="geometry" />
        </mxCell>
        <mxCell id="qzuELBwGNZEWgTf19Vps-3" value="original_url (URLField)" style="text;strokeColor=none;fillColor=none;spacingLeft=4;spacingRight=4;overflow=hidden;rotatable=0;points=[[0,0.5],[1,0.5]];portConstraint=eastwest;fontSize=12;whiteSpace=wrap;html=1;" vertex="1" parent="qzuELBwGNZEWgTf19Vps-1">
          <mxGeometry y="86" width="250" height="30" as="geometry" />
        </mxCell>
        <mxCell id="qzuELBwGNZEWgTf19Vps-13" value="short_code (CharField, unique)" style="text;strokeColor=none;fillColor=none;spacingLeft=4;spacingRight=4;overflow=hidden;rotatable=0;points=[[0,0.5],[1,0.5]];portConstraint=eastwest;fontSize=12;whiteSpace=wrap;html=1;" vertex="1" parent="qzuELBwGNZEWgTf19Vps-1">
          <mxGeometry y="116" width="250" height="30" as="geometry" />
        </mxCell>
        <mxCell id="qzuELBwGNZEWgTf19Vps-14" value="created_at (DateTimeField)" style="text;strokeColor=none;fillColor=none;spacingLeft=4;spacingRight=4;overflow=hidden;rotatable=0;points=[[0,0.5],[1,0.5]];portConstraint=eastwest;fontSize=12;whiteSpace=wrap;html=1;" vertex="1" parent="qzuELBwGNZEWgTf19Vps-1">
          <mxGeometry y="146" width="250" height="30" as="geometry" />
        </mxCell>
        <mxCell id="qzuELBwGNZEWgTf19Vps-15" value="clicks (IntegerField)" style="text;strokeColor=none;fillColor=none;spacingLeft=4;spacingRight=4;overflow=hidden;rotatable=0;points=[[0,0.5],[1,0.5]];portConstraint=eastwest;fontSize=12;whiteSpace=wrap;html=1;" vertex="1" parent="qzuELBwGNZEWgTf19Vps-1">
          <mxGeometry y="176" width="250" height="30" as="geometry" />
        </mxCell>
        <mxCell id="qzuELBwGNZEWgTf19Vps-16" value="is_active (BooleanField)" style="text;strokeColor=none;fillColor=none;spacingLeft=4;spacingRight=4;overflow=hidden;rotatable=0;points=[[0,0.5],[1,0.5]];portConstraint=eastwest;fontSize=12;whiteSpace=wrap;html=1;" vertex="1" parent="qzuELBwGNZEWgTf19Vps-1">
          <mxGeometry y="206" width="250" height="30" as="geometry" />
        </mxCell>
        <mxCell id="qzuELBwGNZEWgTf19Vps-17" value="expiration_date (DateTimeField, optional)" style="text;strokeColor=none;fillColor=none;spacingLeft=4;spacingRight=4;overflow=hidden;rotatable=0;points=[[0,0.5],[1,0.5]];portConstraint=eastwest;fontSize=12;whiteSpace=wrap;html=1;" vertex="1" parent="qzuELBwGNZEWgTf19Vps-1">
          <mxGeometry y="236" width="250" height="30" as="geometry" />
        </mxCell>
        <mxCell id="qzuELBwGNZEWgTf19Vps-5" value="ClickEvent" style="swimlane;fontStyle=0;childLayout=stackLayout;horizontal=1;startSize=26;horizontalStack=0;resizeParent=1;resizeParentMax=0;resizeLast=0;collapsible=1;marginBottom=0;align=center;fontSize=14;" vertex="1" parent="1">
          <mxGeometry x="700" y="150" width="188" height="146" as="geometry" />
        </mxCell>
        <mxCell id="qzuELBwGNZEWgTf19Vps-6" value="short_url (FK)" style="text;strokeColor=none;fillColor=none;spacingLeft=4;spacingRight=4;overflow=hidden;rotatable=0;points=[[0,0.5],[1,0.5]];portConstraint=eastwest;fontSize=12;whiteSpace=wrap;html=1;" vertex="1" parent="qzuELBwGNZEWgTf19Vps-5">
          <mxGeometry y="26" width="188" height="30" as="geometry" />
        </mxCell>
        <mxCell id="qzuELBwGNZEWgTf19Vps-7" value="timestamp (DateTimeField)" style="text;strokeColor=none;fillColor=none;spacingLeft=4;spacingRight=4;overflow=hidden;rotatable=0;points=[[0,0.5],[1,0.5]];portConstraint=eastwest;fontSize=12;whiteSpace=wrap;html=1;" vertex="1" parent="qzuELBwGNZEWgTf19Vps-5">
          <mxGeometry y="56" width="188" height="30" as="geometry" />
        </mxCell>
        <mxCell id="qzuELBwGNZEWgTf19Vps-8" value="ip_address (CharField)" style="text;strokeColor=none;fillColor=none;spacingLeft=4;spacingRight=4;overflow=hidden;rotatable=0;points=[[0,0.5],[1,0.5]];portConstraint=eastwest;fontSize=12;whiteSpace=wrap;html=1;" vertex="1" parent="qzuELBwGNZEWgTf19Vps-5">
          <mxGeometry y="86" width="188" height="30" as="geometry" />
        </mxCell>
        <mxCell id="qzuELBwGNZEWgTf19Vps-20" value="user_agent (TextField, optional)" style="text;strokeColor=none;fillColor=none;spacingLeft=4;spacingRight=4;overflow=hidden;rotatable=0;points=[[0,0.5],[1,0.5]];portConstraint=eastwest;fontSize=12;whiteSpace=wrap;html=1;" vertex="1" parent="qzuELBwGNZEWgTf19Vps-5">
          <mxGeometry y="116" width="188" height="30" as="geometry" />
        </mxCell>
        <mxCell id="qzuELBwGNZEWgTf19Vps-9" value="" style="edgeStyle=entityRelationEdgeStyle;fontSize=12;html=1;endArrow=ERoneToMany;rounded=0;exitX=0.994;exitY=0.155;exitDx=0;exitDy=0;exitPerimeter=0;entryX=0;entryY=0.103;entryDx=0;entryDy=0;entryPerimeter=0;" edge="1" parent="1" source="qzuELBwGNZEWgTf19Vps-1" target="qzuELBwGNZEWgTf19Vps-5">
          <mxGeometry width="100" height="100" relative="1" as="geometry">
            <mxPoint x="500" y="310" as="sourcePoint" />
            <mxPoint x="520" y="198" as="targetPoint" />
          </mxGeometry>
        </mxCell>
        <mxCell id="qzuELBwGNZEWgTf19Vps-11" value="User" style="shape=ext;margin=3;double=1;whiteSpace=wrap;html=1;align=center;" vertex="1" parent="1">
          <mxGeometry x="250" y="188" width="100" height="40" as="geometry" />
        </mxCell>
        <mxCell id="qzuELBwGNZEWgTf19Vps-12" value="" style="edgeStyle=entityRelationEdgeStyle;fontSize=12;html=1;endArrow=ERoneToMany;rounded=0;exitX=1;exitY=0.5;exitDx=0;exitDy=0;entryX=-0.015;entryY=0.049;entryDx=0;entryDy=0;entryPerimeter=0;" edge="1" parent="1" source="qzuELBwGNZEWgTf19Vps-11" target="qzuELBwGNZEWgTf19Vps-1">
          <mxGeometry width="100" height="100" relative="1" as="geometry">
            <mxPoint x="500" y="310" as="sourcePoint" />
            <mxPoint x="600" y="210" as="targetPoint" />
          </mxGeometry>
        </mxCell>
      </root>
    </mxGraphModel>
  </diagram>
</mxfile>
